# xmcd
#
# Track frame offsets: 
#        150
#        22281
#        42263
#        65986
#        87612
#        111150
#        130795
#        163709
#        190035
#        214258
#        239696
#        267038
#
# Disc length: 3703 seconds
#
# Revision: 2
# Processed by: cddbd v1.5.2PL0 Copyright (c) Steve Scherf et al.
# Submitted via: ExactAudioCopyFreeDBPlugin 1.0
#
DISCID=b70e750c
DTITLE=John Lee Sanders and The World Blue Band - Bucket Full Of Blues
DYEAR=2008
DGENRE=Blues
TTITLE0=Bucket Full Of Blues
TTITLE1=Handful
TTITLE2=Off The Hook
TTITLE3=Blue Eyes Gone
TTITLE4=Midnight In New Orleans
TTITLE5=Good To Long
TTITLE6=When To Leave
TTITLE7=Up To No Good
TTITLE8=Hello
TTITLE9=World As I Know It
TTITLE10=Yellow Moon Interstate
TTITLE11=Me And Your Pyjamas
EXTD=
EXTT0=
EXTT1=
EXTT2=
EXTT3=
EXTT4=
EXTT5=
EXTT6=
EXTT7=
EXTT8=
EXTT9=
EXTT10=
EXTT11=
PLAYORDER=
